<svg width="110" height="65" viewBox="0 0 110 65" fill="none" xmlns="http://www.w3.org/2000/svg">
<g clip-path="url(#clip0_1413_10776)">
<path d="M85.7625 8.06838C82.1575 7.15796 79.2921 8.5356 78.5353 11.7139C77.0069 18.1495 75.5894 24.6069 74.1243 31.0564C73.3843 34.3207 72.739 37.6112 71.8205 40.8237C71.4887 41.9765 70.482 43.8069 69.7781 43.8076C68.0184 43.812 68.1948 41.9544 68.0663 40.6288C67.2708 32.2271 66.534 23.8231 65.6794 15.4289C65.1395 10.1145 61.1132 6.53366 56.7489 6.28054L56.7517 6.2275C52.3847 6.02742 48.0093 9.17214 46.9221 14.4021C45.203 22.6627 43.6051 30.9508 41.9389 39.2195C41.6739 40.5246 41.657 42.3905 39.9072 42.204C39.2072 42.1304 38.3954 40.2056 38.1848 39.0246C37.6038 35.7343 37.3079 32.395 36.9046 29.0714C36.1151 22.5048 35.3737 15.9354 34.5199 9.37608C34.1015 6.13677 31.3886 4.47491 27.7089 5.00189C24.6952 5.4358 23.4967 7.16055 24.0319 10.6133C24.9986 16.8488 26.0139 23.0707 27.0883 29.2851C27.8806 33.8468 28.5047 38.4636 29.7401 42.9101C31.1246 47.8748 34.9836 50.261 40.3585 50.2528C44.715 50.2449 47.793 47.7508 49.4002 42.8775C49.7299 41.8682 49.9705 40.8276 50.1739 39.7852C51.707 32.0255 53.1872 24.2578 54.7886 16.5176C54.8957 15.9967 55.3086 15.5395 55.7322 15.0828C56.0158 14.8582 56.4878 14.7019 57.0249 15.4477C57.3233 15.8621 57.5789 16.2796 57.6257 16.7128C58.4169 24.5824 59.0849 32.4617 59.8067 40.333C59.9011 41.391 60.0324 42.4561 60.2561 43.4889C61.3448 48.5021 64.1533 51.3017 68.4856 51.7606C73.8305 52.3305 77.9161 50.3514 79.8071 45.5567C81.4963 41.2621 82.595 36.7347 83.8553 32.2795C85.5673 26.2097 87.2217 20.121 88.8284 14.0245C89.7182 10.6457 88.71 8.80639 85.7522 8.06252L85.7625 8.06838Z" fill="#0BB7E8"/>
<path d="M89.6044 12.7456C89.5267 13.2149 89.5731 13.7598 89.464 14.2168C89.4488 13.4821 89.4507 13.3439 89.4693 13.8076L89.4885 14.0532C89.5131 14.2992 89.5432 14.54 89.584 14.7815C89.6209 14.9961 89.7445 15.2844 89.7332 15.5019C89.5331 14.8373 89.4834 14.6646 89.5836 14.9942C89.6201 15.1131 89.6569 15.2267 89.6987 15.3459C89.8611 15.8117 90.056 16.2685 90.2839 16.7058C90.4339 17.0008 90.8998 17.5781 90.2029 16.6218C90.3472 16.8208 90.4745 17.0401 90.6188 17.2391C90.9121 17.6479 91.2393 18.0212 91.5718 18.3948C92.161 19.0635 90.8216 17.7495 91.5004 18.3326C91.6892 18.4966 91.878 18.6606 92.0726 18.8143C92.4618 19.1217 92.9191 19.3529 93.3083 19.6603L92.7903 19.3675C92.946 19.45 93.1019 19.5272 93.2632 19.6047C93.5129 19.7241 93.7685 19.8331 94.03 19.9317C94.2915 20.0304 94.5538 20.1131 94.8155 20.2065C93.9277 20.0541 95.6005 20.4919 94.8155 20.2065C95.365 20.3042 95.9035 20.4066 96.4604 20.4621C96.7364 20.487 97.0135 20.4908 97.2947 20.516C98.1444 20.5814 96.3416 20.5942 97.2623 20.525C98.3489 20.4431 99.3809 20.2839 100.443 20.0519C100.853 19.9615 99.4565 20.3676 100.417 20.0505C100.682 19.9632 100.949 19.8654 101.21 19.7672C101.776 19.5467 102.327 19.2934 102.865 19.0128C104.858 17.9888 107.709 19.1526 108.504 21.2095C109.383 23.4835 108.434 25.7371 106.303 26.8338C100.644 29.7417 93.6825 29.8111 88.197 26.5056C83.2749 23.5431 80.1652 17.4038 81.1227 11.6938C81.4928 9.49523 83.559 7.59214 85.9003 7.99022C88.1096 8.36549 90.0087 10.3999 89.6145 12.7568L89.6044 12.7456Z" fill="#0BB7E8"/>
<path d="M22.3377 9.25424C22.3664 9.72906 22.2638 10.2662 22.325 10.7321C22.4161 10.0029 22.4286 9.86525 22.3621 10.3245L22.3175 10.5668C22.2677 10.8089 22.2127 11.0454 22.1472 11.2813C22.0883 11.491 21.9354 11.7649 21.9242 11.9824C22.192 11.3421 22.2593 11.1754 22.1255 11.4929C22.0769 11.6074 22.0286 11.7165 21.9747 11.8307C21.7649 12.2772 21.5238 12.7115 21.2518 13.1228C21.0721 13.4007 20.5489 13.9266 21.341 13.0477C21.1769 13.2306 21.0276 13.4356 20.8635 13.6185C20.5294 13.9947 20.1653 14.3322 19.7959 14.6693C19.1407 15.2735 20.609 14.1052 19.8734 14.6149C19.6687 14.7585 19.4639 14.9021 19.2544 15.0348C18.8354 15.3002 18.3568 15.4828 17.9378 15.7482C18.1179 15.6672 18.3031 15.5917 18.4833 15.5106C18.3199 15.5766 18.1568 15.6373 17.9884 15.6977C17.7276 15.7905 17.4621 15.8725 17.1918 15.9435C16.9216 16.0146 16.6521 16.0697 16.3821 16.1355C15.5718 16.3381 17.2809 16.0758 16.3821 16.1355C15.8255 16.1758 15.2793 16.2219 14.7196 16.2194C14.4425 16.2157 14.1665 16.1907 13.8842 16.1867C13.0323 16.1637 14.8241 16.3631 13.9155 16.1989C12.8432 16.005 11.8333 15.7398 10.8006 15.3991C10.4022 15.2667 11.7494 15.8153 10.8272 15.4004C10.5719 15.2861 10.3171 15.1612 10.0676 15.0366C9.52754 14.7586 9.00507 14.4496 8.49992 14.1149C6.62272 12.89 3.66679 13.7524 2.66379 15.716C1.55406 17.8867 2.26438 20.2265 4.27039 21.5378C9.59762 25.016 16.5146 25.8058 22.3129 23.086C27.5153 20.6489 31.2439 14.8647 30.8827 9.08616C30.7422 6.86112 28.8841 4.75435 26.5142 4.90789C24.278 5.05241 22.1784 6.87931 22.3265 9.26429L22.3377 9.25424Z" fill="#0BB7E8"/>
<path d="M28.3262 16.1172C32.4142 16.3294 35.8997 13.1958 36.1113 9.11819C36.323 5.04054 33.1806 1.56294 29.0926 1.35075C25.0047 1.13857 21.5191 4.27214 21.3075 8.34979C21.0958 12.4274 24.2382 15.905 28.3262 16.1172Z" fill="#0BB7E8"/>
<path d="M84.0107 19.0076C88.0987 19.2198 91.5843 16.0862 91.7959 12.0086C92.0076 7.93092 88.8652 4.45332 84.7772 4.24114C80.6892 4.02895 77.2037 7.16252 76.992 11.2402C76.7804 15.3178 79.9228 18.7954 84.0107 19.0076Z" fill="#0BB7E8"/>
<path d="M84.3563 16.2547C86.9142 16.3875 89.0952 14.4267 89.2276 11.8753C89.3601 9.32383 87.3938 7.14783 84.8359 7.01506C82.278 6.88229 80.097 8.84303 79.9646 11.3945C79.8321 13.9459 81.7984 16.1219 84.3563 16.2547Z" fill="white"/>
<path d="M28.6659 13.3641C31.2238 13.4969 33.4048 11.5361 33.5372 8.98466C33.6696 6.4332 31.7034 4.25721 29.1455 4.12444C26.5875 3.99167 24.4066 5.9524 24.2741 8.50386C24.1417 11.0553 26.1079 13.2313 28.6659 13.3641Z" fill="white"/>
<path d="M38.3072 61.1073C36.4939 61.0132 34.742 60.6617 33.0517 60.0474C25.3639 57.2604 21.9612 50.0902 21.817 49.7849C21.3185 48.706 21.7848 47.4272 22.8663 46.9302C23.9425 46.433 25.2246 46.8984 25.7234 47.972C26.0021 48.5609 32.5487 61.9306 48.124 54.6179C49.2004 54.1154 50.4828 54.5755 50.9923 55.6497C51.4964 56.7235 51.0354 58.0026 49.9587 58.5105C45.8655 60.4307 41.9656 61.2972 38.3018 61.107L38.3072 61.1073Z" fill="#2DB3F0"/>
</g>
<defs>
<clipPath id="clip0_1413_10776">
<rect width="106.802" height="59.1985" fill="white" transform="translate(3.06862) rotate(2.9713)"/>
</clipPath>
</defs>
</svg>
