<svg width="289" height="171" viewBox="0 0 289 171" fill="none" xmlns="http://www.w3.org/2000/svg">
<g clip-path="url(#clip0_1302_5291)">
<path d="M225.773 21.2402C216.283 18.8435 208.74 22.4702 206.747 30.8373C202.724 47.7796 198.992 64.7789 195.135 81.7578C193.187 90.3512 191.488 99.0136 189.07 107.471C188.197 110.505 185.546 115.324 183.694 115.326C179.061 115.338 179.525 110.447 179.187 106.958C177.093 84.8396 175.153 62.7155 172.903 40.6174C171.482 26.6267 160.883 17.2 149.393 16.5336L149.401 16.394C137.904 15.8673 126.386 24.146 123.524 37.9143C118.998 59.6607 114.792 81.4798 110.405 103.247C109.708 106.683 109.663 111.595 105.057 111.104C103.214 110.911 101.077 105.843 100.522 102.734C98.9927 94.0726 98.2138 85.2816 97.1521 76.5319C95.0737 59.245 93.122 41.9506 90.8741 24.6828C89.7728 16.1551 82.6308 11.7802 72.9439 13.1675C65.0103 14.3098 61.855 18.8503 63.2641 27.94C65.8088 44.3551 68.4818 60.7349 71.3101 77.0947C73.3958 89.1037 75.0388 101.258 78.2912 112.963C81.936 126.033 92.095 132.315 106.245 132.293C117.713 132.273 125.816 125.707 130.048 112.878C130.915 110.22 131.549 107.481 132.084 104.737C136.12 84.309 140.017 63.8599 144.233 43.4835C144.515 42.112 145.602 40.9084 146.717 39.7062C147.463 39.1149 148.706 38.7033 150.12 40.6668C150.905 41.7577 151.578 42.8567 151.702 43.9971C153.784 64.7145 155.543 85.4571 157.443 106.179C157.692 108.964 158.037 111.768 158.626 114.487C161.492 127.685 168.886 135.055 180.291 136.263C194.362 137.763 205.117 132.553 210.095 119.931C214.542 108.625 217.435 96.7062 220.753 84.9776C225.259 68.9985 229.615 52.9696 233.844 36.9201C236.187 28.0251 233.533 23.1831 225.746 21.2248L225.773 21.2402Z" fill="#0BB7E8"/>
<path d="M235.886 33.554C235.682 34.7895 235.804 36.2239 235.517 37.4271C235.477 35.4929 235.482 35.1291 235.531 36.3497L235.581 36.9964C235.646 37.6438 235.725 38.278 235.833 38.9136C235.93 39.4786 236.255 40.2376 236.226 40.8101C235.699 39.0606 235.568 38.6058 235.832 39.4736C235.928 39.7866 236.025 40.0856 236.135 40.3993C236.562 41.6256 237.075 42.8283 237.675 43.9795C238.07 44.7561 239.297 46.2758 237.462 43.7584C237.842 44.2822 238.177 44.8596 238.557 45.3834C239.329 46.4595 240.19 47.4423 241.066 48.4258C242.617 50.1864 239.091 46.7272 240.878 48.262C241.375 48.6938 241.872 49.1256 242.384 49.5303C243.409 50.3395 244.612 50.948 245.637 51.7573L244.274 50.9864C244.683 51.2037 245.094 51.407 245.518 51.6111C246.176 51.9252 246.849 52.2122 247.537 52.4719C248.225 52.7316 248.916 52.9495 249.605 53.1953C247.268 52.7939 251.671 53.9466 249.605 53.1953C251.051 53.4524 252.469 53.722 253.935 53.8681C254.662 53.9338 255.391 53.9436 256.132 54.0101C258.369 54.1822 253.623 54.2159 256.046 54.0337C258.907 53.8181 261.624 53.3991 264.42 52.7882C265.499 52.5502 261.823 53.6194 264.35 52.7846C265.05 52.5549 265.751 52.2973 266.438 52.0389C267.928 51.4582 269.381 50.7915 270.794 50.0529C276.044 47.3571 283.548 50.4209 285.639 55.8357C287.954 61.8222 285.456 67.7549 279.846 70.642C264.949 78.2973 246.622 78.4801 232.181 69.778C219.224 61.979 211.037 45.8171 213.558 30.785C214.532 24.9972 219.972 19.9872 226.135 21.0351C231.951 22.0231 236.951 27.3789 235.913 33.5834L235.886 33.554Z" fill="#0BB7E8"/>
<path d="M58.8043 24.3624C58.8798 25.6124 58.6099 27.0264 58.7708 28.2529C59.0108 26.3332 59.0436 25.9709 58.8686 27.1799L58.7513 27.8178C58.6199 28.455 58.4753 29.0776 58.3027 29.6987C58.1477 30.2506 57.7454 30.9718 57.7157 31.5443C58.4207 29.8588 58.5979 29.42 58.2457 30.2557C58.1178 30.5571 57.9906 30.8445 57.8487 31.1452C57.2964 32.3206 56.6616 33.4637 55.9456 34.5466C55.4725 35.2781 54.0953 36.6627 56.1805 34.3488C55.7484 34.8304 55.3555 35.37 54.9234 35.8516C54.0439 36.8421 53.0854 37.7304 52.1129 38.6179C50.3881 40.2085 54.2534 37.1329 52.3169 38.4745C51.7779 38.8526 51.239 39.2306 50.6875 39.58C49.5844 40.2788 48.3243 40.7594 47.2213 41.4582C47.6955 41.2448 48.1831 41.0461 48.6574 40.8327C48.2272 41.0064 47.7979 41.1661 47.3545 41.3251C46.6681 41.5695 45.9691 41.7853 45.2576 41.9723C44.546 42.1594 43.8367 42.3046 43.1259 42.4777C40.9927 43.0111 45.4921 42.3205 43.1259 42.4777C41.6606 42.5837 40.2226 42.7051 38.7491 42.6986C38.0197 42.6887 37.2933 42.623 36.5499 42.6124C34.3072 42.552 39.0242 43.0769 36.6324 42.6447C33.8096 42.1342 31.1508 41.4361 28.4322 40.539C27.3836 40.1905 30.93 41.6347 28.5022 40.5426C27.8301 40.2417 27.1594 39.9129 26.5026 39.5848C25.0809 38.8529 23.7054 38.0395 22.3756 37.1584C17.4338 33.9337 9.65209 36.204 7.01164 41.3733C4.09022 47.088 5.96017 53.2474 11.2411 56.6997C25.2653 65.8562 43.4748 67.9354 58.739 60.7752C72.4345 54.3597 82.2503 39.1322 81.2994 23.9199C80.9297 18.0623 76.0382 12.5161 69.7991 12.9203C63.9122 13.3008 58.3849 18.1102 58.7748 24.3888L58.8043 24.3624Z" fill="#0BB7E8"/>
<path d="M74.57 42.4298C85.3319 42.9884 94.5078 34.7391 95.065 24.0044C95.6221 13.2697 87.3496 4.11472 76.5878 3.55611C65.8259 2.99751 56.6501 11.2469 56.0929 21.9815C55.5357 32.7162 63.8082 41.8712 74.57 42.4298Z" fill="#0BB7E8"/>
<path d="M221.164 50.0389C231.926 50.5975 241.102 42.3482 241.659 31.6135C242.216 20.8789 233.943 11.7238 223.182 11.1652C212.42 10.6066 203.244 18.856 202.687 29.5907C202.129 40.3253 210.402 49.4803 221.164 50.0389Z" fill="#0BB7E8"/>
<path d="M222.073 42.7916C228.807 43.1411 234.548 37.9793 234.897 31.2625C235.246 24.5456 230.069 18.8171 223.336 18.4676C216.602 18.1181 210.86 23.2798 210.511 29.9967C210.163 36.7136 215.339 42.4421 222.073 42.7916Z" fill="white"/>
<path d="M75.4656 35.1817C82.1995 35.5312 87.941 30.3695 88.2896 23.6526C88.6383 16.9357 83.462 11.2073 76.7281 10.8577C69.9942 10.5082 64.2527 15.67 63.9041 22.3869C63.5554 29.1037 68.7317 34.8322 75.4656 35.1817Z" fill="white"/>
<path d="M100.846 160.869C96.0724 160.621 91.4604 159.696 87.0106 158.079C66.7721 150.742 57.8142 131.866 57.4348 131.062C56.1225 128.222 57.3499 124.855 60.197 123.547C63.0301 122.238 66.4054 123.463 67.7185 126.289C68.4521 127.84 85.6865 163.036 126.689 143.785C129.523 142.462 132.899 143.674 134.24 146.501C135.567 149.328 134.354 152.696 131.519 154.033C120.744 159.088 110.477 161.369 100.832 160.868L100.846 160.869Z" fill="#2DB3F0"/>
</g>
<defs>
<clipPath id="clip0_1302_5291">
<rect width="281.162" height="155.844" fill="white" transform="translate(8.07831) rotate(2.97131)"/>
</clipPath>
</defs>
</svg>
