<svg width="244" height="244" viewBox="0 0 244 244" fill="none" xmlns="http://www.w3.org/2000/svg">
<g clip-path="url(#clip0_1302_5303)">
<path d="M104.077 48.3973C59.1103 59.3932 29.4811 97.677 38.2343 133.472C42.4119 150.556 54.5664 164.828 72.0679 172.618C73.2615 177.5 73.1742 191.316 58.1279 214.825C58.1279 214.825 86.7431 207.828 106.297 181.492C115.887 181.733 126.096 180.961 135.907 178.562C180.874 167.566 210.503 129.282 201.75 93.487C192.996 57.6917 149.044 37.4013 104.077 48.3973ZM136.125 144.022L119.774 148.02L115.795 131.749L132.146 127.751L136.125 144.022ZM140.895 99.7464C139.238 103.6 136.365 106.027 133.493 108.454C131.438 110.681 130.819 111.694 130.4 113.521C129.162 115.548 129.56 117.175 130.157 119.616L113.806 123.614C112.811 119.547 113.032 116.906 114.07 114.066C115.307 112.039 117.981 108.798 121.472 105.358C123.726 103.945 124.963 101.918 125.383 100.091C125.802 98.264 126.023 95.6235 125.625 93.9964C125.028 91.5558 123.813 90.1287 121.78 88.9015C119.747 87.6743 117.095 87.4605 114.643 88.0603C112.19 88.6601 110.754 89.8735 109.317 91.0868C107.881 92.3002 107.461 94.1272 108.058 96.5678L91.7067 100.566C91.1317 94.6717 92.3908 89.1907 95.683 84.937C98.9751 80.6832 104.499 78.4702 111.857 76.6709C119.216 74.8715 126.154 74.8992 131.038 77.1537C135.921 79.4082 139.568 83.6896 140.96 89.3843C142.574 92.4385 142.552 95.8925 140.895 99.7464Z" fill="#09BC8A"/>
</g>
<defs>
<clipPath id="clip0_1302_5303">
<rect width="202" height="201" fill="white" transform="translate(0 47.9824) rotate(-13.7412)"/>
</clipPath>
</defs>
</svg>
