<svg preserveAspectRatio="none" width="100%" height="100%" overflow="visible" style="display: block;" viewBox="0 0 123 123" fill="none" xmlns="http://www.w3.org/2000/svg">
<g id="ri:speak-fill">
<path id="Vector" d="M46.125 10.25C56.0812 10.2485 65.6978 13.8698 73.18 20.4382C80.6622 27.0065 85.4987 36.0731 86.7867 45.9456L98.318 64.083C99.0765 65.2771 98.9227 67.0555 97.1649 67.814L87.125 72.1087V87.125C87.125 89.8435 86.0451 92.4506 84.1228 94.3728C82.2006 96.2951 79.5935 97.375 76.875 97.375H66.6301L66.625 112.75H20.5V93.8182C20.5 87.7707 18.2655 82.0461 14.1245 76.8801C9.2955 70.8507 6.2681 63.5797 5.3911 55.9048C4.51409 48.2298 5.82315 40.4633 9.16747 33.4999C12.5118 26.5365 17.7553 20.6595 24.2939 16.5461C30.8325 12.4327 38.4001 10.2502 46.125 10.25ZM108.414 92.7727L99.8811 87.084C104.942 79.5126 107.638 70.6072 107.625 61.5C107.64 52.3916 104.947 43.4843 99.8862 35.9109L108.414 30.2221C114.601 39.4788 117.894 50.3664 117.875 61.5C117.875 73.0722 114.39 83.8245 108.414 92.7727Z" fill="var(--fill-0, white)"/>
</g>
</svg>
