<svg preserveAspectRatio="none" width="100%" height="100%" overflow="visible" style="display: block;" viewBox="0 0 93.5 93.5" fill="none" xmlns="http://www.w3.org/2000/svg">
<path id="Vector" fill-rule="evenodd" clip-rule="evenodd" d="M0 46.75C0 59.1489 4.92543 71.0399 13.6928 79.8072C22.4601 88.5746 34.3511 93.5 46.75 93.5C59.1489 93.5 71.0399 88.5746 79.8072 79.8072C88.5746 71.0399 93.5 59.1489 93.5 46.75C93.5 34.3511 88.5746 22.4601 79.8072 13.6928C71.0399 4.92543 59.1489 0 46.75 0C34.3511 0 22.4601 4.92543 13.6928 13.6928C4.92543 22.4601 0 34.3511 0 46.75ZM15.215 57.1625C15.215 57.1625 11.815 56.27 9.52 55.59C8.83723 52.6931 8.49491 49.7263 8.5 46.75L10.965 41.31L16.065 39.7375L10.965 33.405C13.7879 26.0627 18.7734 19.7504 25.2619 15.3033C31.7505 10.8562 39.4363 8.48382 47.3025 8.5C55.1718 8.49538 62.8593 10.8653 69.36 15.3L59.33 20.825L43.2225 15.9375L37.0175 26.86L42.8825 21.59L45.9 26.265L38.76 31.2375L32.13 32.5125L32.385 36.5075C32.385 36.5075 30.4725 38.4625 30.4725 39.3125C30.4725 40.12 32.8525 41.6925 32.8525 41.6925L38.1225 37.6125L43.2225 41.2675L44.54 34.4675L49.0025 48.4925L45.6025 50.1925L41.6925 48.3225L40.5025 46.58L36.55 47.855L34.085 48.365L32.5125 51.085L29.92 54.23L29.835 58.225L33.7875 61.8375L36.55 61.54L39.3975 60.9025L41.225 64.515L43.35 68.68L42.2875 71.8675L45.22 79.5175L48.96 79.0925L52.3175 74.4175L56.27 60.18L52.87 53.4225L55.845 50.0225L59.67 53.975L62.305 52.615L68.0425 48.4925L70.72 50.4475L73.27 55.1225L77.265 50.32L80.58 51L83.47 56.5675C83.47 56.5675 84.6175 56.5675 85 56.015C82.8304 64.3402 77.9526 71.7069 71.1352 76.9547C64.3178 82.2024 55.9482 85.0328 47.345 85C41.8323 85.0139 36.3794 83.8582 31.3463 81.609C26.3132 79.3599 21.8146 76.0686 18.1475 71.9525L22.865 63.1125L16.235 60.605L15.215 57.205V57.1625Z" fill="var(--fill-0, white)"/>
</svg>
