<svg preserveAspectRatio="none" width="100%" height="100%" overflow="visible" style="display: block;" viewBox="0 0 112 121" fill="none" xmlns="http://www.w3.org/2000/svg">
<path id="Vector" d="M63.0044 0H22.1281C14.2188 0 6.51953 4.29051 2.66988 11.7989C0.339609 16.3334 -0.500715 21.6051 0.288934 26.7356C1.07858 31.866 3.45052 36.5453 7.00949 39.9937V63.5149C7.00949 66.9627 10.7891 68.6482 12.959 66.1965L31.5073 45.9698H62.1645C72.3136 45.9698 81.6228 38.4614 83.5826 27.5819C86.1723 12.8715 75.9533 0 63.0044 0ZM91.0019 53.6314H49.8456C39.6965 53.6314 30.3174 61.1398 28.4276 72.0193C27.81 75.3586 27.8775 78.8062 28.625 82.1135C29.3725 85.4207 30.7815 88.505 32.7503 91.1438C34.719 93.7826 37.1984 95.9101 40.0095 97.3726C42.8206 98.8352 45.8932 99.5964 49.0057 99.6012H80.5029L99.0512 119.905C99.5403 120.43 100.159 120.786 100.832 120.929C101.504 121.073 102.2 120.997 102.834 120.711C103.467 120.426 104.01 119.943 104.395 119.323C104.781 118.703 104.991 117.973 105.001 117.223V93.7018C109.41 89.4113 112 83.2053 112 76.6929C112 70.5899 109.79 64.7357 105.854 60.413C101.918 56.0903 96.5774 53.6517 91.0019 53.6314Z" fill="var(--fill-0, white)"/>
</svg>
