<svg preserveAspectRatio="none" width="100%" height="100%" overflow="visible" style="display: block;" viewBox="0 0 195 38" fill="none" xmlns="http://www.w3.org/2000/svg">
<g id="Group 2229">
<g id="Group">
<path id="Vector" d="M18.9269 24.5908C14.9825 24.5754 11.0343 24.5869 7.08997 24.5831C4.86104 24.5831 4.45786 24.1864 4.45786 21.9719C4.45786 15.5247 4.45786 9.07756 4.45786 2.6304C4.45786 1.17459 3.94056 0.388917 2.84892 0.0962146C1.66219 -0.219596 0.711279 0.242566 0 1.475V23.7242C1.23238 27.0788 2.47997 28.057 5.90324 28.0955C10.2242 28.1456 14.5451 28.1109 18.8622 28.1071C19.1665 28.1071 19.4784 28.0955 19.7751 28.0262C20.6005 27.8336 21.0683 27.3291 21.0835 26.4356C21.1026 25.1877 20.4559 24.5946 18.9345 24.5869L18.9269 24.5908Z" fill="var(--fill-0, white)"/>
<path id="Vector_2" d="M78.3967 8.3381C77.0616 8.31499 76.221 9.10837 76.1601 10.4563C76.1449 10.7914 76.1601 11.1265 76.1601 11.7735C74.1214 9.75154 71.9723 8.55763 69.3858 8.38432C63.5587 7.99533 58.9715 10.7028 58.1423 16.5068C57.6669 19.8344 58.032 23.0579 60.4663 25.6499C64.0265 29.4358 71.3523 29.6514 75.213 26.139C75.4564 25.9195 75.6999 25.6961 75.9433 25.4727C76.0612 25.5074 76.1791 25.5382 76.3009 25.569C76.1031 27.2135 76.0612 28.8966 75.6695 30.491C75.213 32.3358 73.8894 33.5952 72.075 34.1152C68.918 35.0241 65.9474 34.6967 63.3685 32.4206C63.068 32.1548 62.7143 31.9276 62.3453 31.7658C61.4819 31.3884 60.5842 31.6927 60.0327 32.5207C59.4964 33.3218 59.6105 34.0843 60.2685 34.7506C60.6527 35.1358 61.0483 35.5248 61.4971 35.829C64.4449 37.824 67.7655 38.2053 71.185 37.9126C76.5367 37.4543 80.3821 33.445 80.4734 28.0917C80.5761 22.2222 80.5153 16.3489 80.5001 10.4794C80.5001 9.14303 79.6899 8.36121 78.4005 8.3381H78.3967ZM69.7092 24.9528C68.8001 24.9836 67.8682 24.9297 66.9782 24.7525C64.559 24.2673 63.0452 22.7306 62.6116 20.3158C62.3986 19.1257 62.4062 17.8317 62.6268 16.6455C63.2011 13.5721 65.567 11.9237 69.1006 11.9199C72.7901 11.916 75.2016 13.6106 75.9205 16.7071C76.9551 21.1785 74.2469 24.7949 69.7092 24.9528Z" fill="var(--fill-0, white)"/>
<path id="Vector_3" d="M102.622 10.3408C98.1413 7.57939 93.4096 7.53317 88.83 10.0365C83.4327 12.9944 82.4247 20.8357 86.7456 25.2609C87.7954 26.3393 88.9746 27.0942 90.2412 27.6025C90.245 27.6025 90.2526 27.6064 90.2602 27.6102C90.4161 27.6988 91.3709 28.1956 93.3183 28.3728C94.7523 28.5038 96.7188 28.4614 99.3014 27.9569C99.8986 27.8028 100.484 27.6218 101.051 27.3907C101.161 27.3445 101.268 27.3021 101.374 27.2521C101.39 27.2444 101.409 27.2367 101.424 27.229C101.511 27.1904 101.599 27.1519 101.686 27.1096C101.755 27.0749 101.823 27.0402 101.892 27.0056H101.895C104.851 25.5035 106.498 22.8808 106.81 19.4454C107.152 15.648 105.935 12.382 102.622 10.3408ZM93.7747 24.7949C91.329 24.3713 89.5261 23.1042 88.8604 20.62C88.1682 18.0319 88.4002 15.5632 90.4656 13.599C91.8843 12.2472 93.672 11.8967 95.5586 11.9199C99.5677 11.9584 102.215 14.2114 102.39 17.7392C102.641 22.8346 99.1112 25.7269 93.7747 24.7949Z" fill="var(--fill-0, white)"/>
<path id="Vector_4" d="M45.5067 8.38046C42.9126 8.65006 40.7445 9.69377 38.8693 11.8582C38.8123 11.0533 38.8237 10.4717 38.7172 9.91715C38.5042 8.83107 37.6179 8.24952 36.4312 8.34195C35.2597 8.43438 34.5408 9.07371 34.5332 10.2137C34.5066 15.6711 34.5066 21.1246 34.5332 26.5819C34.537 27.6834 35.2407 28.3535 36.3095 28.4729C37.9755 28.6578 38.8693 27.849 38.8807 26.1198C38.8921 23.6819 38.8389 21.2478 38.8959 18.8099C39.0062 14.1652 41.9312 11.5116 46.4043 11.9545C48.135 12.124 49.3331 13.0637 49.8238 14.739C50.0672 15.5786 50.1357 16.4914 50.1471 17.3734C50.1851 20.3928 50.1395 23.4123 50.1813 26.4317C50.2003 27.8452 50.9306 28.4883 52.3114 28.4883C53.6731 28.4883 54.5327 27.7758 54.5441 26.4972C54.5707 22.9963 54.662 19.4916 54.5098 15.9984C54.2854 10.8723 50.5807 7.84513 45.5105 8.37276L45.5067 8.38046Z" fill="var(--fill-0, white)"/>
<path id="Vector_5" d="M27.6296 8.3458C26.0701 8.19175 25.1991 9.02364 25.1953 10.7529C25.18 15.8636 25.1876 20.9705 25.1953 26.0813C25.1953 26.3855 25.2371 26.6975 25.2903 26.9979C25.4501 27.8952 26.0321 28.3497 26.8917 28.4691C28.6261 28.7117 29.5999 27.849 29.6075 26.0543C29.6151 23.5163 29.6075 20.9782 29.6075 18.4402C29.6075 15.7982 29.6189 13.16 29.5999 10.518C29.5923 9.22391 28.8734 8.46519 27.6258 8.34195L27.6296 8.3458Z" fill="var(--fill-0, white)"/>
<path id="Vector_6" d="M27.4166 0.0692576C25.7164 0.0577036 24.5144 1.13608 24.5144 2.67662C24.5144 4.26338 25.6555 5.29554 27.39 5.28783C29.1054 5.27628 30.2655 4.20945 30.2503 2.65351C30.2351 1.16689 29.0483 0.084663 27.4204 0.0692576H27.4166Z" fill="var(--fill-0, white)"/>
</g>
<path id="Vector_7" d="M118.582 10.8916C119.721 10.8916 120.644 9.95701 120.644 8.80416C120.644 7.6513 119.721 6.71673 118.582 6.71673C117.444 6.71673 116.521 7.6513 116.521 8.80416C116.521 9.95701 117.444 10.8916 118.582 10.8916Z" fill="var(--fill-0, #FFFEEC)"/>
<path id="Vector_8" d="M123.466 32.0663C122.663 32.0663 121.884 31.9507 121.127 31.7158C117.673 30.649 116.011 27.5178 115.942 27.3869C115.699 26.917 115.874 26.3355 116.338 26.0851C116.802 25.8387 117.376 26.0158 117.624 26.4857C117.76 26.7437 120.952 32.5708 127.646 28.939C128.11 28.6886 128.684 28.8658 128.932 29.3318C129.179 29.8017 129.004 30.3832 128.544 30.6336C126.783 31.5887 125.086 32.0663 123.466 32.0663Z" fill="var(--fill-0, white)"/>
<path id="Vector_9" d="M191.323 22.8231C190.961 23.0079 190.627 23.2467 190.273 23.4547C187.283 25.2147 184.134 25.3341 180.943 24.1941C179.056 23.5202 178.048 21.8102 178.151 19.7304H183.099C185.754 19.7304 188.409 19.7689 191.064 19.7189C193.932 19.6611 195.381 17.797 194.913 14.9355C194.564 12.7903 193.377 11.2151 191.62 10.0867C188.854 8.31118 185.777 7.98382 182.59 8.30733C180.501 8.51915 178.74 9.17388 177.348 10.233C176.953 10.5296 176.591 10.8608 176.26 11.2228C176.124 11.3653 175.998 11.5117 175.88 11.6657C175.88 11.6657 175.88 11.6696 175.872 11.6696C175.507 12.1279 175.184 12.6285 174.91 13.1716C174.385 14.196 174.028 15.3707 173.841 16.684C173.149 21.606 175.325 25.8001 179.459 27.4485C181.993 28.4576 184.632 28.5346 187.295 28.1841C189.497 27.8953 191.509 27.1173 193.244 25.6962C194.103 24.9952 194.259 24.2558 193.761 23.4624C193.145 22.4764 192.384 22.2685 191.323 22.8231ZM180.452 12.6324C183.388 11.1612 186.37 11.3114 189.25 12.8635C190.09 13.3141 190.65 14.0612 190.729 15.0741C190.809 16.0716 190.475 16.5377 189.493 16.5454C186.291 16.5723 183.088 16.5608 179.783 16.5569H178.208C178.158 15.0857 178.661 13.9573 179.6 13.1831C179.855 12.9713 180.136 12.7903 180.452 12.6324Z" fill="var(--fill-0, #2DB3F0)"/>
<path id="Vector_10" d="M176.462 10.391C176.458 10.7106 176.39 10.9918 176.26 11.2228C176.165 11.3962 176.04 11.5425 175.88 11.6658C175.88 11.6658 175.88 11.6696 175.872 11.6696C175.579 11.8968 175.172 12.0355 174.659 12.0894C174.119 12.1472 173.571 12.1241 173.027 12.1356C171.057 12.178 169.482 12.7942 168.402 13.8995C167.329 14.9895 166.74 16.5608 166.709 18.5327C166.675 21.0361 166.721 23.5433 166.694 26.0505C166.675 27.6989 165.751 28.4884 164.131 28.3228C163.066 28.2111 162.35 27.5179 162.347 26.4434C162.328 20.9822 162.328 15.5248 162.35 10.0674C162.35 8.92745 163.081 8.26501 164.237 8.18414C165.466 8.0917 166.375 8.72718 166.553 9.85947C166.645 10.4141 166.626 10.9918 166.664 11.7043C167.185 11.2151 167.58 10.8069 168.006 10.4449C168.033 10.4218 168.06 10.3987 168.086 10.3794C169.756 8.99292 171.681 8.5115 173.727 8.55772C173.727 8.55772 173.731 8.55387 173.731 8.55772C174.043 8.60008 174.355 8.66941 174.655 8.76184C175.207 8.9313 175.728 9.16238 176.218 9.44353C176.386 9.71312 176.466 10.0328 176.462 10.391Z" fill="var(--fill-0, #2DB3F0)"/>
<path id="Vector_11" d="M156.402 18.3054C156.402 20.8434 156.409 23.3815 156.402 25.9195C156.394 27.6256 155.584 28.4113 153.956 28.3343C152.602 28.2688 151.993 27.5717 151.989 26.0004C151.978 22.1259 151.989 18.2515 151.989 14.377C151.989 13.0406 151.967 11.7003 151.997 10.3639C152.031 8.9004 152.75 8.1956 154.139 8.18019C155.531 8.16479 156.386 8.96201 156.402 10.3832C156.428 13.0213 156.409 15.6634 156.409 18.3054H156.402Z" fill="var(--fill-0, #2DB3F0)"/>
<path id="Vector_12" d="M154.131 5.67686C152.389 5.69227 151.244 4.67166 151.236 3.08491C151.225 1.53281 152.404 0.462139 154.119 0.458288C155.736 0.458288 156.965 1.55977 156.984 3.01943C156.999 4.58308 155.846 5.65761 154.131 5.67301V5.67686Z" fill="var(--fill-0, #2DB3F0)"/>
<path id="Vector_13" d="M143.751 8.31118C142.13 7.98767 140.89 8.67321 140.628 10.1213C140.099 13.056 139.62 15.9985 139.114 18.937C138.859 20.4237 138.65 21.9218 138.319 23.3892C138.201 23.9168 137.794 24.7641 137.482 24.7795C136.703 24.8219 136.737 23.9823 136.649 23.3892C136.102 19.6226 135.584 15.8521 135.01 12.0932C134.649 9.71307 132.777 8.19179 130.837 8.18024V8.15713C128.894 8.16868 127.026 9.68996 126.665 12.0701C126.09 15.8329 125.573 19.6033 125.025 23.3661C124.938 23.9592 124.976 24.8026 124.192 24.7564C123.88 24.7372 123.474 23.8899 123.356 23.3661C123.021 21.8987 122.812 20.4006 122.561 18.9139C122.059 15.9754 121.579 13.0329 121.047 10.0982C120.784 8.6501 119.544 7.96071 117.924 8.28807C116.597 8.55382 116.106 9.35875 116.422 10.9031C116.996 13.6877 117.589 16.4683 118.209 19.2452C118.666 21.2825 119.05 23.3468 119.7 25.3226C120.427 27.5255 122.195 28.5115 124.58 28.3805C126.513 28.2727 127.821 27.0788 128.422 24.845C128.548 24.3829 128.627 23.9091 128.696 23.4316C129.198 19.8999 129.673 16.3682 130.206 12.8404C130.24 12.6016 130.415 12.3859 130.59 12.1702C130.712 12.0624 130.917 11.9815 131.172 12.305C131.313 12.4822 131.438 12.6671 131.469 12.8635C132.001 16.3875 132.481 19.923 132.979 23.4547C133.047 23.9284 133.127 24.406 133.253 24.8681C133.854 27.1019 135.162 28.2958 137.094 28.4037C139.479 28.5346 141.248 27.5487 141.974 25.3457C142.625 23.3699 143.009 21.3056 143.465 19.2683C144.085 16.4953 144.679 13.7108 145.253 10.9262C145.569 9.38571 145.078 8.57692 143.751 8.31118Z" fill="var(--fill-0, #2DB3F0)"/>
<g id="Group_2">
<path id="Vector_14" d="M145.561 10.3293C145.538 10.545 145.573 10.7876 145.531 10.9956C145.508 10.6643 145.504 10.6027 145.523 10.8107L145.538 10.9185C145.554 11.0264 145.573 11.1381 145.599 11.2459C145.622 11.3422 145.683 11.4693 145.683 11.5656C145.58 11.269 145.554 11.1958 145.607 11.3383C145.626 11.3923 145.645 11.4423 145.668 11.4924C145.751 11.7004 145.85 11.9006 145.957 12.0932C146.033 12.2241 146.25 12.4706 145.919 12.0585C145.987 12.1471 146.048 12.2395 146.117 12.3281C146.257 12.5053 146.409 12.6632 146.565 12.825C146.843 13.1138 146.219 12.5515 146.531 12.798C146.619 12.8673 146.706 12.9366 146.797 13.0021C146.98 13.1331 147.185 13.2255 147.364 13.3526L147.128 13.2332C147.201 13.2679 147.273 13.2987 147.345 13.3295C147.459 13.3757 147.577 13.4219 147.691 13.4604C147.805 13.4989 147.927 13.5298 148.045 13.5644C148.399 13.6723 147.646 13.5143 148.045 13.5644C148.292 13.5952 148.532 13.6299 148.779 13.6414C148.901 13.6453 149.026 13.6414 149.148 13.6453C149.528 13.653 148.726 13.7031 149.133 13.6453C149.612 13.5837 150.069 13.4874 150.533 13.3564C150.711 13.3064 150.103 13.522 150.521 13.3564C150.639 13.3102 150.753 13.2602 150.867 13.2101C151.115 13.0984 151.35 12.9713 151.586 12.8327C152.446 12.3243 153.739 12.7826 154.138 13.6915C154.58 14.6929 154.215 15.7327 153.29 16.2758C150.845 17.72 147.76 17.9126 145.246 16.5492C142.994 15.3283 141.472 12.6362 141.765 10.0404C141.879 9.04293 142.75 8.13402 143.8 8.26111C144.789 8.3805 145.679 9.2509 145.557 10.3216L145.561 10.3293Z" fill="var(--fill-0, #2DB3F0)"/>
<path id="Vector_15" d="M115.63 10.3293C115.653 10.545 115.619 10.7876 115.661 10.9956C115.684 10.6643 115.688 10.6027 115.669 10.8107L115.653 10.9185C115.638 11.0264 115.619 11.1381 115.592 11.2459C115.57 11.3422 115.509 11.4693 115.509 11.5656C115.611 11.269 115.638 11.1958 115.585 11.3383C115.566 11.3923 115.547 11.4423 115.524 11.4924C115.44 11.7004 115.341 11.9006 115.235 12.0932C115.159 12.2241 114.942 12.4706 115.273 12.0585C115.204 12.1471 115.144 12.2395 115.075 12.3281C114.934 12.5053 114.782 12.6632 114.626 12.825C114.349 13.1138 114.972 12.5515 114.661 12.798C114.573 12.8673 114.486 12.9366 114.394 13.0021C114.212 13.1331 114.006 13.2255 113.828 13.3526L114.063 13.2332C113.991 13.2679 113.919 13.2987 113.847 13.3295C113.732 13.3757 113.615 13.4219 113.5 13.4604C113.386 13.4989 113.265 13.5298 113.147 13.5644C113.546 13.5143 112.793 13.6723 113.147 13.5644C112.899 13.5952 112.66 13.6299 112.413 13.6414C112.291 13.6453 112.165 13.6414 112.044 13.6453C111.663 13.653 112.466 13.7031 112.059 13.6453C111.58 13.5837 111.123 13.4874 110.659 13.3564C110.48 13.3064 111.089 13.522 110.671 13.3564C110.553 13.3102 110.439 13.2602 110.324 13.2101C110.077 13.0984 109.841 12.9713 109.606 12.8327C108.746 12.3243 107.453 12.7826 107.053 13.6915C106.612 14.6929 106.977 15.7327 107.902 16.2758C110.347 17.72 113.432 17.9126 115.946 16.5492C118.198 15.3283 119.719 12.6362 119.427 10.0404C119.312 9.04293 118.441 8.13402 117.392 8.26111C116.403 8.3805 115.513 9.2509 115.634 10.3216L115.63 10.3293Z" fill="var(--fill-0, #2DB3F0)"/>
<g id="Group_3">
<path id="Vector_16" d="M118.445 13.2833C120.264 13.2833 121.739 11.79 121.739 9.948C121.739 8.10598 120.264 6.61273 118.445 6.61273C116.626 6.61273 115.151 8.10598 115.151 9.948C115.151 11.79 116.626 13.2833 118.445 13.2833Z" fill="var(--fill-0, #2DB3F0)"/>
<path id="Vector_17" d="M143.226 13.2833C145.045 13.2833 146.52 11.79 146.52 9.948C146.52 8.10598 145.045 6.61273 143.226 6.61273C141.407 6.61273 139.932 8.10598 139.932 9.948C139.932 11.79 141.407 13.2833 143.226 13.2833Z" fill="var(--fill-0, #2DB3F0)"/>
</g>
</g>
<path id="Vector_18" d="M156.177 10.7452C156.154 10.9609 156.189 11.2036 156.147 11.4115C156.124 11.0803 156.12 11.0187 156.139 11.2267L156.154 11.3345C156.17 11.4423 156.189 11.554 156.215 11.6619C156.238 11.7582 156.299 11.8852 156.299 11.9815C156.196 11.685 156.17 11.6118 156.223 11.7543C156.242 11.8082 156.261 11.8583 156.284 11.9084C156.367 12.1163 156.466 12.3166 156.573 12.5092C156.649 12.6401 156.866 12.8866 156.535 12.4745C156.603 12.5631 156.664 12.6555 156.733 12.7441C156.873 12.9213 157.025 13.0792 157.181 13.2409C157.459 13.5298 156.835 12.9675 157.147 13.214C157.235 13.2833 157.322 13.3526 157.413 13.4181C157.596 13.549 157.801 13.6415 157.98 13.7686L157.744 13.6492C157.817 13.6838 157.889 13.7146 157.961 13.7454C158.075 13.7917 158.193 13.8379 158.307 13.8764C158.421 13.9149 158.543 13.9457 158.661 13.9804C159.015 14.0882 158.262 13.9303 158.661 13.9804C158.908 14.0112 159.148 14.0459 159.395 14.0574C159.517 14.0613 159.642 14.0574 159.764 14.0613C160.144 14.069 159.342 14.119 159.749 14.0613C160.228 13.9996 160.684 13.9034 161.149 13.7724C161.327 13.7223 160.719 13.938 161.137 13.7724C161.255 13.7262 161.369 13.6761 161.483 13.6261C161.73 13.5144 161.966 13.3873 162.202 13.2486C163.062 12.7402 164.355 13.1986 164.754 14.1075C165.196 15.1088 164.83 16.1487 163.906 16.6917C161.46 18.136 158.376 18.3286 155.861 16.9652C153.61 15.7443 152.088 13.0522 152.381 10.4564C152.495 9.4589 153.366 8.54998 154.416 8.67708C155.405 8.79647 156.295 9.66687 156.173 10.7375L156.177 10.7452Z" fill="var(--fill-0, #2DB3F0)"/>
<g id="Group_4">
<path id="Vector_19" d="M172.13 12.4052C172.194 12.3936 172.263 12.3859 172.27 12.3859C172.259 12.3898 172.217 12.3975 172.13 12.4052Z" fill="var(--fill-0, #2DB3F0)"/>
<path id="Vector_20" d="M179.783 16.5569C179.573 16.8111 179.292 17.0152 178.946 17.15C178.029 17.5044 176.793 16.9036 176.542 15.9253C176.473 15.6634 176.394 15.4015 176.298 15.1473C176.253 15.028 176.207 14.9124 176.158 14.7969C176.158 14.7892 176.158 14.7853 176.15 14.7776C175.914 14.3655 175.671 13.9881 175.386 13.6145H175.382C175.291 13.5221 175.207 13.4335 175.116 13.3488C175.047 13.2871 174.982 13.2294 174.91 13.1716C174.796 13.0715 174.674 12.979 174.556 12.8866C174.556 12.8828 174.549 12.8828 174.545 12.8789C174.435 12.8173 174.328 12.7557 174.218 12.6979C174.108 12.6401 173.997 12.5901 173.883 12.54C173.864 12.5323 173.845 12.5246 173.826 12.5169C173.64 12.4784 173.457 12.4129 173.271 12.3821C173.176 12.3667 173.077 12.3513 172.982 12.3397H172.97C172.75 12.3436 172.533 12.3474 172.316 12.3744C172.286 12.3744 172.251 12.3821 172.221 12.3898C172.141 12.3975 172.065 12.4129 171.989 12.4206C172.035 12.4167 172.073 12.4129 172.107 12.409C172.08 12.4129 172.057 12.4167 172.038 12.4244C171.837 12.4784 171.639 12.5438 171.441 12.6286C171.369 12.6863 171.266 12.7248 171.194 12.7672C171.103 12.8288 171.015 12.8905 170.928 12.9559C170.928 12.9559 170.148 13.2794 169.224 14.0343C168.946 14.0497 168.665 13.9996 168.402 13.8995C168.201 13.8263 168.014 13.7223 167.847 13.5876C167.725 13.4913 167.622 13.3796 167.543 13.2602C167.037 12.5631 167.124 11.5425 167.649 10.8685C167.786 10.6952 167.931 10.5334 168.086 10.3794C169.524 8.92357 171.711 8.26114 173.727 8.55769H173.731C174.043 8.60006 174.355 8.66938 174.655 8.76181C175.207 8.93127 175.728 9.16236 176.219 9.4435C176.618 9.67458 176.995 9.94033 177.348 10.233C178.295 11.0303 179.064 12.0432 179.6 13.1832C178.661 13.9573 178.158 15.0857 178.208 16.5569H179.783Z" fill="var(--fill-0, #2DB3F0)"/>
</g>
<path id="Vector_21" d="M173.271 12.3821L170.928 11.4655V11.1189H169.079L167.542 13.2602L165.283 16.4106L166.816 17.2541C167.413 15.7636 168.379 14.7237 169.224 14.0344C170.148 13.2795 170.928 12.956 170.928 12.956V12.9444C171.563 12.6479 172.384 12.3821 173.271 12.3821Z" fill="var(--fill-0, #2DB3F0)"/>
<g id="Group_5">
<path id="Vector_22" d="M143.313 12.0354C144.452 12.0354 145.375 11.1008 145.375 9.94799C145.375 8.79514 144.452 7.86056 143.313 7.86056C142.175 7.86056 141.252 8.79514 141.252 9.94799C141.252 11.1008 142.175 12.0354 143.313 12.0354Z" fill="var(--fill-0, white)"/>
<path id="Vector_23" d="M118.533 12.0354C119.671 12.0354 120.594 11.1008 120.594 9.94799C120.594 8.79514 119.671 7.86056 118.533 7.86056C117.394 7.86056 116.471 8.79514 116.471 9.94799C116.471 11.1008 117.394 12.0354 118.533 12.0354Z" fill="var(--fill-0, white)"/>
</g>
</g>
</svg>
