<svg preserveAspectRatio="none" width="100%" height="100%" overflow="visible" style="display: block;" viewBox="0 0 24 24" fill="none" xmlns="http://www.w3.org/2000/svg">
<g id="streamline-flex:tiktok-solid" clip-path="url(#clip0_0_86)">
<path id="Vector" fill-rule="evenodd" clip-rule="evenodd" d="M6.26914 0.814286C8.11029 0.608571 10.032 0.428571 12 0.428571C13.968 0.428571 15.8897 0.608571 17.7309 0.814286C19.1302 0.974744 20.4338 1.60521 21.4284 2.6026C22.423 3.6 23.0498 4.90532 23.2063 6.30514C23.4034 8.13771 23.5714 10.0457 23.5714 12C23.5714 13.9543 23.4034 15.8623 23.2063 17.6949C23.0498 19.0947 22.423 20.4 21.4284 21.3974C20.4338 22.3948 19.1302 23.0253 17.7309 23.1857C15.8897 23.3914 13.968 23.5714 12 23.5714C10.032 23.5714 8.11029 23.3914 6.26914 23.1857C4.86976 23.0253 3.56621 22.3948 2.57162 21.3974C1.57703 20.4 0.950234 19.0947 0.793714 17.6949C0.596571 15.8623 0.428571 13.9543 0.428571 12C0.428571 10.0457 0.596571 8.13771 0.793714 6.30514C0.950234 4.90532 1.57703 3.6 2.57162 2.6026C3.56621 1.60521 4.86976 0.974744 6.26914 0.814286ZM14.2834 4.94057C14.2242 4.68407 14.0727 4.45833 13.8577 4.30642C13.6427 4.15451 13.3793 4.08706 13.1178 4.11695C12.8563 4.14683 12.6149 4.27196 12.4397 4.46845C12.2645 4.66494 12.1678 4.91904 12.168 5.18229V15.0857C12.168 15.6119 12.012 16.1263 11.7196 16.5638C11.4273 17.0014 11.0117 17.3424 10.5256 17.5438C10.0394 17.7451 9.50448 17.7978 8.98838 17.6952C8.47228 17.5925 7.99821 17.3391 7.62612 16.967C7.25403 16.5949 7.00064 16.1209 6.89798 15.6048C6.79532 15.0887 6.84801 14.5537 7.04938 14.0676C7.25075 13.5814 7.59177 13.1659 8.02929 12.8735C8.46682 12.5812 8.98122 12.4251 9.50743 12.4251C9.79159 12.4251 10.0641 12.3123 10.265 12.1113C10.466 11.9104 10.5789 11.6379 10.5789 11.3537C10.5789 11.0696 10.466 10.797 10.265 10.5961C10.0641 10.3952 9.79159 10.2823 9.50743 10.2823C8.5574 10.2823 7.62871 10.564 6.83879 11.0918C6.04887 11.6196 5.4332 12.3698 5.06964 13.2475C4.70608 14.1252 4.61096 15.091 4.7963 16.0228C4.98164 16.9546 5.43912 17.8105 6.11089 18.4823C6.78266 19.154 7.63855 19.6115 8.57033 19.7968C9.5021 19.9822 10.4679 19.8871 11.3456 19.5235C12.2233 19.1599 12.9735 18.5443 13.5013 17.7544C14.0291 16.9644 14.3109 16.0357 14.3109 15.0857V9.10286C15.3394 9.97714 16.6663 10.4571 18.2229 10.4571C18.507 10.4571 18.7795 10.3443 18.9805 10.1433C19.1814 9.9424 19.2943 9.66987 19.2943 9.38571C19.2943 9.10155 19.1814 8.82903 18.9805 8.6281C18.7795 8.42717 18.507 8.31429 18.2229 8.31429C17.0914 8.31429 16.2514 7.96457 15.6326 7.41429C15.0017 6.852 14.5337 6.01543 14.2834 4.94057Z" fill="var(--fill-0, white)"/>
</g>
<defs>
<clipPath id="clip0_0_86">
<rect width="24" height="24" fill="white"/>
</clipPath>
</defs>
</svg>
