<svg width="100" height="77" viewBox="0 0 100 77" fill="none" xmlns="http://www.w3.org/2000/svg">
<g clip-path="url(#clip0_1302_5238)">
<path d="M65.9926 12.2274H9.47061C4.24131 12.2274 0 16.4303 0 21.6122V58.6452C0 62.1161 1.90212 65.1447 4.73069 66.7673C4.71838 71.4765 8.00862 75.7343 12.6131 76.9543C13.638 77.2257 14.346 76.1491 13.9151 75.2737C12.8409 73.093 12.7732 70.7353 13.5796 68.46C13.635 68.3045 13.6504 68.1642 13.6442 68.03H65.9926C71.2219 68.03 75.4632 63.8271 75.4632 58.6452V21.6122C75.4632 16.4303 71.2219 12.2274 65.9926 12.2274Z" fill="#8ED6EF"/>
<path d="M9.59703 28.4198H60.0002C62.2563 28.4198 64.0846 27.0107 64.0846 25.2753C64.0846 23.5398 62.2563 22.1307 60.0002 22.1307H9.59703C7.34095 22.1307 5.5127 23.5398 5.5127 25.2753C5.5127 27.0107 7.34095 28.4198 9.59703 28.4198Z" fill="white"/>
<path d="M9.59703 41.5073H60.0002C62.2563 41.5073 64.0846 40.0982 64.0846 38.3628C64.0846 36.6274 62.2563 35.2183 60.0002 35.2183H9.59703C7.34095 35.2183 5.5127 36.6274 5.5127 38.3628C5.5127 40.0982 7.34095 41.5073 9.59703 41.5073Z" fill="white"/>
<path d="M9.59703 54.5978H60.0002C62.2563 54.5978 64.0846 53.1887 64.0846 51.4533C64.0846 49.7178 62.2563 48.3087 60.0002 48.3087H9.59703C7.34095 48.3087 5.5127 49.7178 5.5127 51.4533C5.5127 53.1887 7.34095 54.5978 9.59703 54.5978Z" fill="white"/>
<path d="M90.5142 0.509399H33.9892C28.7599 0.509399 24.5186 4.71228 24.5186 9.89421V46.9272C24.5186 50.3981 26.4207 53.4267 29.2492 55.0493C29.2369 59.7585 32.5272 64.0162 37.1317 65.2362C38.1566 65.5077 38.8645 64.431 38.4336 63.5557C37.3594 61.375 37.2917 59.0173 38.0981 56.742C38.1535 56.5865 38.1689 56.4462 38.1628 56.312H90.5112C95.7405 56.312 99.9818 52.1091 99.9818 46.9272V9.89421C99.9818 4.71228 95.7405 0.509399 90.5112 0.509399H90.5142Z" fill="#2DB3F0"/>
<path d="M90.8864 0H36.4974C31.465 0 27.3838 4.04428 27.3838 9.03102V44.6671C27.3838 48.0068 29.2151 50.9226 31.936 52.4842C31.9267 57.0165 35.0908 61.1126 39.5229 62.2869C40.5109 62.5492 41.1911 61.5122 40.7787 60.6704C39.7476 58.572 39.6799 56.3028 40.4555 54.1129C40.5078 53.9634 40.5232 53.8262 40.5171 53.6981H90.8895C95.9218 53.6981 100.003 49.6538 100.003 44.6671V9.03102C100.003 4.04428 95.9218 0 90.8895 0H90.8864Z" fill="#223982"/>
<path d="M40.409 14.0879H88.91C91.0799 14.0879 92.8405 12.7337 92.8405 11.0623C92.8405 9.39094 91.0799 8.03674 88.91 8.03674H40.409C38.2391 8.03674 36.4785 9.39094 36.4785 11.0623C36.4785 12.7337 38.2391 14.0879 40.409 14.0879Z" fill="#637CCC" fill-opacity="0.96"/>
<path d="M40.0735 26.5166H84.4287C86.4139 26.5166 88.0236 25.1624 88.0236 23.491C88.0236 21.8196 86.4139 20.4655 84.4287 20.4655H40.0735C38.0882 20.4655 36.4785 21.8196 36.4785 23.491C36.4785 25.1624 38.0882 26.5166 40.0735 26.5166Z" fill="#637CCC" fill-opacity="0.96"/>
<path d="M39.0024 38.9484H70.135C71.5293 38.9484 72.6589 37.5942 72.6589 35.9228C72.6589 34.2514 71.5293 32.8972 70.135 32.8972H39.0024C37.6081 32.8972 36.4785 34.2514 36.4785 35.9228C36.4785 37.5942 37.6081 38.9484 39.0024 38.9484Z" fill="#637CCC" fill-opacity="0.96"/>
</g>
<defs>
<clipPath id="clip0_1302_5238">
<rect width="100" height="77" fill="white"/>
</clipPath>
</defs>
</svg>
