<svg width="77" height="77" viewBox="0 0 77 77" fill="none" xmlns="http://www.w3.org/2000/svg">
<g clip-path="url(#clip0_1302_5277)">
<path d="M49.2323 9.71494C50.3303 9.71494 51.4262 9.71494 52.5242 9.71494C52.7155 9.77798 52.9003 9.86711 53.096 9.89972C55.9487 10.3801 58.4578 11.5714 60.4799 13.6431C64.5762 17.8386 65.7851 22.8146 63.7543 28.2905C61.7518 33.686 57.6316 36.7729 51.898 37.1968C46.2101 37.6185 41.7615 35.1881 38.9197 30.2165C38.0413 28.6775 37.6912 26.8384 37.0977 25.1384C37.0977 24.0406 37.0977 22.945 37.0977 21.8472C37.1607 21.6559 37.2477 21.4711 37.2825 21.2755C38.0848 16.83 40.433 13.4496 44.4359 11.3692C45.9209 10.5975 47.6277 10.2541 49.2323 9.71277V9.71494ZM50.8783 27.2558C51.8371 27.2558 52.796 27.234 53.7527 27.2644C54.3114 27.2818 54.5811 27.0884 54.5789 26.5123C54.5724 24.4993 54.5745 22.4885 54.5789 20.4755C54.5789 19.9081 54.3136 19.7125 53.7527 19.719C51.8371 19.7429 49.9216 19.7429 48.0039 19.719C47.4451 19.7125 47.1755 19.8951 47.1776 20.4712C47.1841 22.4841 47.182 24.495 47.1776 26.5079C47.1776 27.0753 47.4407 27.2818 48.0039 27.2623C48.9605 27.2297 49.9194 27.2536 50.8783 27.2536V27.2558ZM45.8557 19.7342C43.7053 19.7342 41.5593 19.7125 39.4133 19.7647C39.1763 19.7712 38.8175 20.1646 38.7392 20.4407C38.1609 22.4907 38.1891 24.558 38.7458 26.6079C38.811 26.8492 39.085 27.2144 39.2676 27.2166C41.4767 27.2579 43.6879 27.2449 45.8557 27.2449V19.7321V19.7342ZM55.9008 27.2536C58.049 27.2536 60.2255 27.271 62.3998 27.2253C62.6128 27.221 62.976 26.834 63.002 26.5949C63.1673 25.1449 63.4304 23.6754 63.3325 22.232C63.1651 19.7255 63.0651 19.7321 60.5842 19.7321H55.8987V27.2558L55.9008 27.2536ZM39.372 18.493C41.668 18.493 43.7096 18.5147 45.7513 18.4603C45.9752 18.4538 46.2883 18.0451 46.3905 17.7604C46.9341 16.2561 47.3994 14.7213 47.9408 13.2148C48.1843 12.5388 48.5387 11.904 48.9214 11.0801C44.4619 12.0062 41.3788 14.3387 39.3741 18.4908L39.372 18.493ZM53.133 11.2236C53.8918 13.4844 54.6289 15.7452 55.429 17.9843C55.5138 18.2212 55.9552 18.4603 56.24 18.4734C57.4685 18.5277 58.6991 18.4973 59.9298 18.4973C60.6908 18.4973 61.454 18.4973 62.2758 18.4973C61.0974 14.917 56.5988 11.4518 53.1308 11.2258L53.133 11.2236ZM48.6192 35.7468C47.8712 33.5099 47.1124 31.2209 46.3297 28.9427C46.2688 28.7644 46.0296 28.5209 45.8687 28.5188C43.7684 28.4905 41.668 28.4992 39.5307 28.4992C40.3917 31.8665 45.4599 35.7664 48.617 35.7468H48.6192ZM53.133 35.7403C56.9597 35.6099 61.7388 31.2904 62.1258 28.4927C60.1059 28.4927 58.0925 28.4775 56.0813 28.5122C55.853 28.5166 55.4964 28.747 55.4247 28.9514C54.6289 31.223 53.8766 33.5121 53.1308 35.7403H53.133ZM54.194 18.4451C53.7983 16.2843 53.0765 14.3126 52.0719 12.4496C51.7741 11.8953 51.2783 11.4475 50.8739 10.9519C50.4673 11.4497 49.9607 11.8975 49.6694 12.4562C48.6909 14.3279 47.9386 16.2887 47.569 18.4451H54.194ZM47.5516 28.5492C48.0734 31.1752 49.0192 33.4991 50.2934 35.6903C50.6108 36.2359 51.1392 36.2272 51.437 35.7229C52.7416 33.5121 53.6983 31.1622 54.194 28.5492H47.5494H47.5516Z" fill="#8ED6EF"/>
<path d="M24.8069 34.4925C23.0001 34.7512 21.3346 34.9881 19.5995 35.236V74.324H6.57993V54.7985C6.09724 54.7985 5.70152 54.8028 5.3058 54.7985C2.29877 54.7615 0.0331703 52.529 0.0201246 49.5356C0.000556062 44.7509 -0.0124896 39.9684 0.0244732 35.1838C0.0570874 30.8491 3.47506 27.4384 7.8171 27.4101C13.1441 27.3753 18.4732 27.4014 23.8002 27.4014C24.0959 27.4014 24.3938 27.4014 24.8069 27.4014V26.421C24.8069 18.2408 24.8069 10.0584 24.8069 1.87821C24.8069 0.376076 25.1831 0 26.6812 0C42.8274 0 58.9736 0 75.1198 0C76.62 0 77.0006 0.37825 77.0006 1.87169C77.0006 16.2778 77.0006 30.6839 77.0006 45.0879C77.0006 46.5878 76.6201 46.9704 75.1285 46.9704C58.9823 46.9704 42.8361 46.9704 26.6899 46.9704C25.1874 46.9704 24.8069 46.5943 24.8069 45.1009C24.8069 41.8945 24.8069 38.6859 24.8069 35.4794V34.4903V34.4925ZM27.4661 34.1186V44.3031H74.3501V2.65862H27.4748V27.3992C29.9774 27.3992 32.4213 27.3927 34.8652 27.4014C36.5024 27.4079 37.7113 28.447 37.8439 29.9318C37.9787 31.4556 36.9481 32.7121 35.2978 32.9665C32.6974 33.3664 30.0948 33.7338 27.4683 34.1164L27.4661 34.1186Z" fill="#223982"/>
<path d="M36.5867 63.9331C38.2696 63.9331 39.9525 63.9244 41.6376 63.9331C44.7316 63.9526 46.9624 66.1873 46.9863 69.2894C46.9972 70.7546 46.9559 72.2219 47.0059 73.6871C47.0255 74.2697 46.7928 74.5784 46.3384 74.8545C44.5381 75.9479 42.5486 76.4523 40.4917 76.7153C36.9346 77.1718 33.3884 77.1327 29.916 76.1479C28.8072 75.8327 27.7461 75.311 26.7177 74.7806C26.422 74.6284 26.1545 74.1241 26.1415 73.7719C26.0806 72.2263 26.098 70.6785 26.1197 69.1307C26.1611 66.2308 28.4049 63.9765 31.2967 63.9352C33.0622 63.9113 34.8256 63.9309 36.5911 63.9309L36.5867 63.9331Z" fill="#8ED6EF"/>
<path d="M75.6934 71.3741C75.6934 71.998 75.6195 72.6349 75.7108 73.2458C75.8587 74.2262 75.389 74.7262 74.5867 75.1371C72.3407 76.2892 69.9294 76.7348 67.4507 76.8979C63.9588 77.1261 60.5061 76.9479 57.1838 75.6979C57.1077 75.6696 57.0316 75.6436 56.9555 75.611C55.5306 75.024 54.8181 73.9632 54.8181 72.4284C54.8181 71.3154 54.8029 70.2024 54.8225 69.0894C54.8768 66.2373 57.1142 63.97 59.9647 63.9439C63.4935 63.9113 67.0246 63.9113 70.5534 63.9439C73.4017 63.9721 75.6304 66.2351 75.6912 69.0937C75.7065 69.8546 75.6934 70.6133 75.6956 71.3741H75.6934Z" fill="#8ED6EF"/>
<path d="M20.888 18.2843C20.8793 22.5929 17.3548 26.1015 13.0432 26.0928C8.73814 26.0841 5.22667 22.5559 5.23537 18.2474C5.24406 13.9431 8.77075 10.4324 13.0802 10.4411C17.3896 10.4498 20.8945 13.9714 20.888 18.2843Z" fill="#223982"/>
<path d="M30.0264 56.0702C30.0395 52.4746 32.9921 49.5595 36.6014 49.5834C40.1977 49.6051 43.1004 52.5638 43.0699 56.1767C43.0395 59.7331 40.1042 62.6309 36.5362 62.6243C32.9378 62.6178 30.0134 59.6744 30.0264 56.0702Z" fill="#8ED6EF"/>
<path d="M71.777 56.1505C71.7575 59.7439 68.7961 62.6547 65.189 62.6264C61.5992 62.5981 58.6987 59.6265 58.7357 56.0157C58.7705 52.4593 61.7123 49.5724 65.2825 49.5833C68.8831 49.5942 71.7966 52.5419 71.777 56.1505Z" fill="#8ED6EF"/>
</g>
<defs>
<clipPath id="clip0_1302_5277">
<rect width="77" height="77" fill="white"/>
</clipPath>
</defs>
</svg>
