<svg width="214" height="77" viewBox="0 0 214 77" fill="none" xmlns="http://www.w3.org/2000/svg">
<g clip-path="url(#clip0_1302_5252)">
<path d="M155.088 18.5618H56.8457V23.5248H155.088V18.5618Z" fill="#223982"/>
<path d="M155.088 48.7839H56.8457V53.4857H155.088V48.7839Z" fill="white"/>
<path d="M48.1891 26.0037C48.0783 20.3955 43.4844 15.9261 37.9521 16.0384C32.4173 16.1508 28.0064 20.8056 28.1173 26.4112C28.2281 32.0194 32.822 36.4887 38.3543 36.3764C43.8891 36.2641 48.3 31.6093 48.1891 26.0037Z" fill="white"/>
<path d="M37.9963 0C17.0118 0 0 17.2374 0 38.5C0 59.7626 17.0118 77 37.9963 77C58.9807 77 75.9925 59.7626 75.9925 38.5C75.9925 17.2374 58.9807 0 37.9963 0ZM55.6191 58.5323C55.6191 58.5323 55.5933 58.5323 55.5804 58.5323C54.8869 58.5454 54.3017 57.9968 54.2682 57.289C54.0594 52.9215 52.2806 48.8257 49.2593 45.7539C46.2405 42.6846 42.2988 40.9711 38.1587 40.9345C38.0066 40.9345 37.8545 40.9345 37.705 40.9345C29.0766 41.1095 21.9512 48.5462 21.7243 57.733C21.7063 58.454 21.1108 59.0182 20.4044 59.0051C19.6929 58.9868 19.1309 58.3887 19.1489 57.6677C19.3887 48.0447 26.2409 40.0882 35.0033 38.581C29.6644 37.1809 25.6582 32.3171 25.5422 26.4634C25.403 19.4159 30.9482 13.5673 37.9035 13.4263C44.8587 13.2852 50.6308 18.9039 50.77 25.9514C50.8911 32.0246 46.787 37.2044 41.2006 38.6123C49.7543 40.1509 56.3976 47.773 56.8487 57.1662C56.8823 57.8871 56.3357 58.4984 55.6242 58.5349L55.6191 58.5323Z" fill="#8ED6EF"/>
<path d="M186.197 26.0037C186.086 20.3955 181.492 15.9261 175.96 16.0384C170.425 16.1508 166.014 20.8056 166.125 26.4112C166.236 32.0194 170.83 36.4887 176.362 36.3764C181.897 36.2641 186.308 31.6093 186.197 26.0037Z" fill="#223982"/>
<path d="M176.004 0C155.02 0 138.008 17.2374 138.008 38.5C138.008 59.7626 155.02 77 176.004 77C196.989 77 214 59.7626 214 38.5C214 17.2374 196.989 0 176.004 0ZM193.627 58.5323C193.627 58.5323 193.601 58.5323 193.588 58.5323C192.895 58.5454 192.31 57.9968 192.276 57.289C192.067 52.9215 190.288 48.8257 187.267 45.7539C184.248 42.6846 180.307 40.9711 176.166 40.9345C176.014 40.9345 175.862 40.9345 175.713 40.9345C167.084 41.1095 159.959 48.5462 159.732 57.733C159.714 58.454 159.119 59.0182 158.412 59.0051C157.701 58.9868 157.139 58.3887 157.157 57.6677C157.396 48.0447 164.249 40.0882 173.011 38.581C167.672 37.1809 163.666 32.3171 163.55 26.4634C163.411 19.4159 168.956 13.5673 175.911 13.4263C182.867 13.2852 188.639 18.9039 188.778 25.9514C188.899 32.0246 184.795 37.2044 179.208 38.6123C187.762 40.1509 194.405 47.773 194.857 57.1662C194.89 57.8871 194.344 58.4984 193.632 58.5349L193.627 58.5323Z" fill="#223982"/>
<path d="M91.4213 56.4452C94.1549 56.4452 96.371 54.1998 96.371 51.4299C96.371 48.6601 94.1549 46.4147 91.4213 46.4147C88.6877 46.4147 86.4717 48.6601 86.4717 51.4299C86.4717 54.1998 88.6877 56.4452 91.4213 56.4452Z" fill="white"/>
<path d="M91.4209 55.1287C93.4369 55.1287 95.0712 53.4727 95.0712 51.43C95.0712 49.3872 93.4369 47.7312 91.4209 47.7312C89.4048 47.7312 87.7705 49.3872 87.7705 51.43C87.7705 53.4727 89.4048 55.1287 91.4209 55.1287Z" fill="white"/>
<path d="M120.173 56.4452C122.907 56.4452 125.123 54.1998 125.123 51.4299C125.123 48.6601 122.907 46.4147 120.173 46.4147C117.44 46.4147 115.224 48.6601 115.224 51.4299C115.224 54.1998 117.44 56.4452 120.173 56.4452Z" fill="white"/>
<path d="M120.173 55.1287C122.189 55.1287 123.823 53.4727 123.823 51.43C123.823 49.3872 122.189 47.7312 120.173 47.7312C118.157 47.7312 116.522 49.3872 116.522 51.43C116.522 53.4727 118.157 55.1287 120.173 55.1287Z" fill="white"/>
<path d="M120.173 26.0585C122.907 26.0585 125.123 23.8131 125.123 21.0432C125.123 18.2734 122.907 16.028 120.173 16.028C117.44 16.028 115.224 18.2734 115.224 21.0432C115.224 23.8131 117.44 26.0585 120.173 26.0585Z" fill="#223982"/>
<path d="M120.173 24.742C122.189 24.742 123.823 23.086 123.823 21.0432C123.823 19.0005 122.189 17.3445 120.173 17.3445C118.157 17.3445 116.522 19.0005 116.522 21.0432C116.522 23.086 118.157 24.742 120.173 24.742Z" fill="white"/>
<path d="M91.4213 26.0585C94.1549 26.0585 96.371 23.8131 96.371 21.0432C96.371 18.2734 94.1549 16.028 91.4213 16.028C88.6877 16.028 86.4717 18.2734 86.4717 21.0432C86.4717 23.8131 88.6877 26.0585 91.4213 26.0585Z" fill="#223982"/>
<path d="M91.4209 24.742C93.4369 24.742 95.0712 23.086 95.0712 21.0432C95.0712 19.0005 93.4369 17.3445 91.4209 17.3445C89.4048 17.3445 87.7705 19.0005 87.7705 21.0432C87.7705 23.086 89.4048 24.742 91.4209 24.742Z" fill="white"/>
</g>
<defs>
<clipPath id="clip0_1302_5252">
<rect width="214" height="77" fill="white"/>
</clipPath>
</defs>
</svg>
